<svg xmlns="http://www.w3.org/2000/svg" width="60" height="36" viewBox="0 0 60 36"><defs><style>.a{fill:#006;}.b{fill:#c00;}.c{fill:#f90;}.d{fill:#fff;}</style></defs><rect class="a" width="60" height="36" rx="4"/><path class="b" d="M23.418,11.709A11.709,11.709,0,1,1,11.709,0,11.708,11.708,0,0,1,23.418,11.709" transform="translate(10.259 6.582)"/><path class="c" d="M11.446,0A11.668,11.668,0,0,0,3.585,3.031,11.935,11.935,0,0,0,2.4,4.27H4.769a12.014,12.014,0,0,1,.893,1.24H1.511a11.764,11.764,0,0,0-.675,1.24h5.5a11.661,11.661,0,0,1,.5,1.24H.34A11.657,11.657,0,0,0,0,9.23H7.172a11.8,11.8,0,0,1,.263,2.48,11.7,11.7,0,0,1-.6,3.72H.34a11.831,11.831,0,0,0,.5,1.24h5.5a11.729,11.729,0,0,1-.675,1.24H1.511A11.805,11.805,0,0,0,2.4,19.148H4.768a11.7,11.7,0,0,1-1.183,1.24A11.709,11.709,0,1,0,11.446,0" transform="translate(26.242 6.582)"/><path class="a" d="M1.161,5.021A1.193,1.193,0,0,1,0,3.7C0,2.519.814,1.84,2.232,1.84a4.257,4.257,0,0,1,.517.038,1.2,1.2,0,0,0,.05-.313c0-.321-.221-.44-.815-.44H1.948a4.188,4.188,0,0,0-1.309.218C.652,1.266.8.36.815.257A4.972,4.972,0,0,1,2.336,0,1.885,1.885,0,0,1,3.58.361a1.311,1.311,0,0,1,.425,1.056,6.222,6.222,0,0,1-.1.957c-.095.6-.346,2.189-.38,2.565H2.47l.023-.5A1.584,1.584,0,0,1,1.161,5.021ZM2.314,2.766c-.72,0-1.084.247-1.084.735a.445.445,0,0,0,.455.492c.515,0,.891-.5.913-1.208A2.159,2.159,0,0,0,2.314,2.766Z" transform="translate(16.636 16.787)"/><path class="a" d="M5.1,5.939H3.826l.729-4.565L2.928,5.939H2.062L1.955,1.4,1.19,5.939H0L.994,0H2.822l.11,3.324L4.048,0H6.081L5.1,5.939" transform="translate(11.006 15.786)"/><path class="a" d="M1.162,5.021A1.193,1.193,0,0,1,0,3.7C0,2.519.814,1.84,2.232,1.84a4.257,4.257,0,0,1,.517.038A1.185,1.185,0,0,0,2.8,1.564c0-.321-.221-.44-.815-.44H1.947a4.206,4.206,0,0,0-1.309.218C.651,1.263.814.266.815.256A5.078,5.078,0,0,1,2.336,0,1.887,1.887,0,0,1,3.58.361a1.311,1.311,0,0,1,.425,1.056,6.109,6.109,0,0,1-.1.957l-.023.143c-.114.727-.327,2.079-.356,2.422H2.47l.023-.5A1.585,1.585,0,0,1,1.162,5.021ZM2.315,2.766c-.72,0-1.085.247-1.085.735a.445.445,0,0,0,.455.492c.516,0,.891-.5.913-1.208A2.15,2.15,0,0,0,2.315,2.766Z" transform="translate(36.662 16.787)"/><path class="a" d="M1.918,5.488A2.905,2.905,0,0,1,1,5.645.93.93,0,0,1,0,4.583,11.149,11.149,0,0,1,.175,3.3C.248,2.845.726,0,.726,0H1.989L1.842.731h.763L2.433,1.892H1.667c-.147.918-.356,2.063-.358,2.214,0,.249.133.358.435.358a1.034,1.034,0,0,0,.343-.046L1.918,5.488" transform="translate(23.89 16.164)"/><path class="a" d="M2.17,5.021H2.152A1.927,1.927,0,0,1,0,2.866C0,1.206.93,0,2.211,0A1.619,1.619,0,0,1,3.919,1.748a5.14,5.14,0,0,1-.156,1.188H1.247a.842.842,0,0,0,.167.687,1.2,1.2,0,0,0,.932.306,2.985,2.985,0,0,0,1.313-.3l-.21,1.2A4.332,4.332,0,0,1,2.17,5.021ZM2.15,1.1c-.4,0-.69.306-.807.862h1.4c0-.006,0-.015,0-.026A.894.894,0,0,0,2.6,1.269.575.575,0,0,0,2.15,1.1Z" transform="translate(26.234 16.787)"/><path class="a" d="M.481,1.635a1.41,1.41,0,0,0,.968,1.348c.515.242.595.314.595.533,0,.3-.227.437-.73.437A3.571,3.571,0,0,1,.175,3.763L0,4.879a5.923,5.923,0,0,0,1.323.143c1.341,0,1.961-.511,1.961-1.614a1.323,1.323,0,0,0-.9-1.346c-.533-.244-.594-.3-.594-.525,0-.261.212-.395.622-.395a7.022,7.022,0,0,1,.914.072L3.51.094A8.582,8.582,0,0,0,2.391,0C.969,0,.477.743.481,1.635" transform="translate(20.44 16.787)"/><path class="a" d="M5.72,1.471a2.418,2.418,0,0,1,1.136.321L7.064.5a3.734,3.734,0,0,0-1.4-.5A2.532,2.532,0,0,0,3.592,1.119c-.738-.244-1.042.249-1.413.742l-.33.077a2.467,2.467,0,0,0,.041-.486H.721C.562,2.947.279,4.461.058,5.957L0,6.282H1.272c.212-1.379.328-2.262.4-2.86l.479-.265c.072-.267.3-.356.745-.345a5.411,5.411,0,0,0-.09.99c0,1.58.854,2.564,2.222,2.564a3.967,3.967,0,0,0,1.124-.174l.223-1.353a2.474,2.474,0,0,1-1.08.3c-.739,0-1.186-.546-1.186-1.447,0-1.308.665-2.224,1.614-2.224" transform="translate(30.144 15.444)"/><path class="a" d="M3.99,6.023c-.918,0-1.535-.805-1.535-2a4.134,4.134,0,0,1,.309-1.567h-.04c-.319,0-.517.2-.792.467-.08.079-.163.161-.258.247-.112.845-.247,1.779-.4,2.775H0l.058-.325c.073-.493.153-1,.232-1.483.16-.994.325-2.02.431-3.023H1.889c0,.089-.017.354-.057.727v0a10.177,10.177,0,0,0,1.082.3A1.974,1.974,0,0,1,4.523.927a1.626,1.626,0,0,1,1.214.789L6.019,0H7.273L6.3,5.939H5.1l.06-.449A1.506,1.506,0,0,1,3.99,6.023Zm.774-3.774c-.581,0-.986.667-.986,1.622,0,.632.219.952.652.952.593,0,1.008-.669,1.008-1.628C5.437,2.585,5.2,2.249,4.764,2.249Z" transform="translate(40.608 15.786)"/><path class="d" d="M5.1,5.939H3.826l.729-4.565L2.929,5.939H2.062L1.955,1.4,1.19,5.939H0L.994,0H2.822l.051,3.676L4.106,0H6.081L5.1,5.939" transform="translate(11.372 15.434)"/><path class="d" d="M1.161,5.022A1.194,1.194,0,0,1,0,3.7C0,2.519.814,1.841,2.232,1.841a4.257,4.257,0,0,1,.517.038,1.194,1.194,0,0,0,.05-.314c0-.32-.221-.439-.815-.439H1.942a4.172,4.172,0,0,0-1.3.217C.652,1.264.808.3.814.256A5.048,5.048,0,0,1,2.336,0,1.884,1.884,0,0,1,3.58.361a1.311,1.311,0,0,1,.425,1.056,6.168,6.168,0,0,1-.1.957c-.149.939-.35,2.226-.38,2.565H2.47l.023-.5A1.605,1.605,0,0,1,1.161,5.022ZM2.314,2.767c-.72,0-1.084.247-1.084.735a.445.445,0,0,0,.455.492c.515,0,.891-.5.913-1.208A2.159,2.159,0,0,0,2.314,2.767Z" transform="translate(17.002 16.435)"/><path class="d" d="M4.26.308,4.052,1.6a2.427,2.427,0,0,0-1.135-.32C1.968,1.277,1.3,2.194,1.3,3.5c0,.9.447,1.446,1.186,1.446a2.46,2.46,0,0,0,1.08-.3L3.344,6a3.967,3.967,0,0,1-1.123.174C.852,6.171,0,5.187,0,3.607,0,1.484,1.179,0,2.863,0a4.4,4.4,0,0,1,1.4.308" transform="translate(33.314 15.286)"/><path class="d" d="M1.161,5.022A1.194,1.194,0,0,1,0,3.7C0,2.519.813,1.841,2.231,1.841a4.257,4.257,0,0,1,.517.038,1.194,1.194,0,0,0,.05-.314c0-.32-.221-.439-.815-.439H1.942a4.19,4.19,0,0,0-1.3.217C.651,1.266.8.36.814.257A5.01,5.01,0,0,1,2.336,0,1.8,1.8,0,0,1,3.649.424,1.344,1.344,0,0,1,4,1.417a6.1,6.1,0,0,1-.1.957l-.012.078c-.117.748-.335,2.136-.367,2.487H2.47l.023-.5A1.588,1.588,0,0,1,1.161,5.022ZM2.314,2.767c-.72,0-1.084.247-1.084.735a.445.445,0,0,0,.455.492c.516,0,.891-.5.913-1.208A2.13,2.13,0,0,0,2.314,2.767Z" transform="translate(37.028 16.435)"/><path class="d" d="M1.918,5.487a2.9,2.9,0,0,1-.913.157A.93.93,0,0,1,0,4.584,11.178,11.178,0,0,1,.175,3.3C.248,2.844.726,0,.726,0H1.99L1.842.731h.649L2.318,1.891H1.667c-.147.919-.356,2.063-.359,2.215,0,.25.133.358.436.358a1.017,1.017,0,0,0,.343-.046L1.918,5.487" transform="translate(24.255 15.812)"/><path class="d" d="M2.152,5.022A1.926,1.926,0,0,1,0,2.867C0,1.206.93,0,2.21,0A1.62,1.62,0,0,1,3.919,1.749a5.246,5.246,0,0,1-.156,1.187H1.247a.842.842,0,0,0,.167.687,1.2,1.2,0,0,0,.931.306,2.976,2.976,0,0,0,1.314-.305l-.21,1.2A4.39,4.39,0,0,1,2.152,5.022Zm0-3.922c-.4,0-.69.306-.807.862h1.4c0-.006,0-.015,0-.026A.894.894,0,0,0,2.6,1.269.575.575,0,0,0,2.15,1.1Z" transform="translate(26.6 16.435)"/><path class="d" d="M.481,1.635a1.41,1.41,0,0,0,.968,1.349c.515.242.594.314.594.533,0,.3-.227.437-.73.437a3.582,3.582,0,0,1-1.139-.19L0,4.878a5.885,5.885,0,0,0,1.322.143c1.342,0,1.961-.511,1.961-1.614a1.322,1.322,0,0,0-.9-1.346c-.533-.245-.594-.3-.594-.525,0-.261.211-.4.622-.4a7.07,7.07,0,0,1,.913.073L3.51.095A8.653,8.653,0,0,0,2.391,0C.969,0,.477.743.481,1.635" transform="translate(20.806 16.435)"/><path class="d" d="M1.534,6.023C.617,6.023,0,5.217,0,4.019,0,2.413.947,1.058,2.068,1.058a1.437,1.437,0,0,1,1.214.659L3.564,0H4.818L3.85,5.939h-1.2l.059-.45A1.508,1.508,0,0,1,1.534,6.023Zm.774-3.775c-.58,0-.985.667-.985,1.623,0,.632.219.952.652.952.594,0,1.008-.669,1.008-1.628C2.983,2.584,2.743,2.248,2.308,2.248Z" transform="translate(43.428 15.434)"/><path class="d" d="M.721.052C.562,1.547.279,3.061.058,4.557L0,4.882H1.271c.455-2.954.564-3.53,1.278-3.458a4.741,4.741,0,0,1,.482-1.4C2.5-.088,2.2.213,1.812.784A4.4,4.4,0,0,0,1.889.052H.721" transform="translate(40.974 16.491)"/><path class="d" d="M.721.052C.562,1.547.278,3.061.058,4.557L0,4.882H1.272c.455-2.954.564-3.53,1.276-3.458a4.77,4.77,0,0,1,.483-1.4C2.5-.088,2.2.213,1.813.784A4.379,4.379,0,0,0,1.889.052H.721" transform="translate(30.51 16.491)"/></svg>