<svg xmlns="http://www.w3.org/2000/svg" width="40" height="24" viewBox="0 0 40 24"><defs><style>.a{fill:#26337a;}.b{fill:#fffffe;}.c{fill:#ec982d;}</style></defs><rect class="a" width="40" height="24" rx="4"/><path class="b" d="M0,7.63,1.23,0H3.2L1.966,7.63H0" transform="translate(16.596 8.189)"/><path class="b" d="M5.9.32A4.86,4.86,0,0,0,4.137,0C2.194,0,.826,1.035.814,2.518c-.012,1.1.976,1.708,1.722,2.073.766.374,1.023.613,1.02.947-.005.511-.611.745-1.177.745a3.937,3.937,0,0,1-1.852-.4L.275,5.761,0,7.469a5.934,5.934,0,0,0,2.19.407c2.066,0,3.408-1.023,3.424-2.606C5.621,4.4,5.1,3.741,3.963,3.2c-.687-.354-1.109-.588-1.1-.946,0-.317.356-.657,1.126-.657a3.448,3.448,0,0,1,1.471.293l.177.087L5.9.32" transform="translate(19.794 8.056)"/><path class="b" d="M2.064,7.625H0L2.92.633A.969.969,0,0,1,3.95,0H5.469L7.06,7.624H5.235c0-.011-.181-.882-.239-1.143h0l-1.359,0H3.613l-1.134,0c-.076.2-.411,1.138-.414,1.148ZM4.089,2.06l-.182.5,0,.005c-.067.183-.079.216-.079.22s-.622,1.7-.783,2.131H4.676c-.077-.377-.452-2.184-.455-2.2Z" transform="translate(25.267 8.197)"/><path class="b" d="M4.854,0,2.929,5.2,2.723,4.144A5.859,5.859,0,0,0,0,.944L1.76,7.617H3.841L6.937,0H4.854" transform="translate(10.093 8.195)"/><path class="c" d="M3.2,0H.026L0,.158A6.6,6.6,0,0,1,4.777,4.149L4.088.644A.826.826,0,0,0,3.2,0" transform="translate(8.04 8.19)"/></svg>