<svg xmlns="http://www.w3.org/2000/svg" width="60" height="36" viewBox="0 0 60 36"><defs><style>.a{fill:#26337a;}.b{fill:#fffffe;}.c{fill:#ec982d;}</style></defs><rect class="a" width="60" height="36" rx="4"/><path class="b" d="M0,11.444,1.845,0H4.794L2.949,11.444H0" transform="translate(24.894 12.284)"/><path class="b" d="M8.849.48A7.29,7.29,0,0,0,6.206,0C3.291,0,1.238,1.553,1.221,3.777,1.2,5.422,2.686,6.339,3.8,6.886c1.149.56,1.535.919,1.531,1.42-.008.766-.917,1.118-1.765,1.118a5.906,5.906,0,0,1-2.778-.6L.412,8.642,0,11.2a8.9,8.9,0,0,0,3.285.61c3.1,0,5.112-1.534,5.135-3.909.011-1.3-.775-2.293-2.477-3.11-1.031-.531-1.663-.882-1.656-1.419,0-.476.534-.985,1.689-.985a5.173,5.173,0,0,1,2.207.44l.265.131L8.849.48" transform="translate(29.691 12.084)"/><path class="b" d="M3.1,11.438H0L4.379.949A1.454,1.454,0,0,1,5.925,0H8.2L10.59,11.436H7.853c0-.019-.275-1.334-.359-1.715l-2.074,0-1.7,0c-.108.292-.567,1.573-.619,1.718h0Zm3.037-8.35c-.083.236-.2.55-.283.779s-.112.306-.111.31c-.038.1-.937,2.561-1.174,3.2H7.014c-.114-.564-.677-3.277-.682-3.3Z" transform="translate(37.9 12.295)"/><path class="b" d="M7.281,0,4.394,7.8,4.085,6.216A8.788,8.788,0,0,0,0,1.416L2.641,11.425l3.121,0L10.406,0H7.281" transform="translate(15.14 12.293)"/><path class="c" d="M4.795,0H.039L0,.237A9.9,9.9,0,0,1,7.165,6.224L6.131.966A1.239,1.239,0,0,0,4.795,0" transform="translate(12.06 12.285)"/></svg>